<svg xmlns="http://www.w3.org/2000/svg" viewBox="0 0 1200 640" width="100%" height="auto">
<rect width="1200" height="640" fill="#060606"/>
<text x="48" y="48" fill="#D92323" font-family="JetBrains Mono, monospace" font-size="13" font-weight="700" letter-spacing="0.08em">THE COST CURVE</text>
<line x1="48" y1="60" x2="96" y2="60" stroke="#D92323" stroke-width="2.5"/>
<text x="48" y="112" fill="#F2EFE9" font-family="Inter, sans-serif" font-size="42" font-weight="800" letter-spacing="-0.02em">Cost per kg-km, by range.</text>
<rect x="48" y="132" width="560" height="48" fill="none" stroke="#2b2b2b" stroke-width="1"/>
<text x="66" y="161" fill="#8A8781" font-family="Inter, sans-serif" font-size="14">Cost per kg-km&#160;&#160;=</text>
<text x="238" y="153" fill="#F2EFE9" font-family="Inter, sans-serif" font-size="14" font-weight="600">unit cost (INR)</text>
<line x1="238" y1="159" x2="560" y2="159" stroke="#F2EFE9" stroke-width="1"/>
<text x="238" y="174" fill="#F2EFE9" font-family="Inter, sans-serif" font-size="14" font-weight="600">payload (kg) × range (km)</text>
<text x="660" y="153" fill="#8A8781" font-family="Inter, sans-serif" font-size="13">Both axes logarithmic on cost. Range linear.</text>
<text x="660" y="172" fill="#8A8781" font-family="Inter, sans-serif" font-size="13">Comparator prices from public sources.</text>
<line x1="110" y1="517.2" x2="1140" y2="517.2" stroke="#2b2b2b" stroke-width="1"/>
<text x="98" y="521.2" fill="#F2EFE9" font-family="JetBrains Mono, monospace" font-size="12" text-anchor="end">100</text>
<line x1="110" y1="472.7" x2="1140" y2="472.7" stroke="#1E1E1E" stroke-width="1"/>
<line x1="110" y1="413.9" x2="1140" y2="413.9" stroke="#1E1E1E" stroke-width="1"/>
<line x1="110" y1="369.4" x2="1140" y2="369.4" stroke="#2b2b2b" stroke-width="1"/>
<text x="98" y="373.4" fill="#F2EFE9" font-family="JetBrains Mono, monospace" font-size="12" text-anchor="end">1,000</text>
<line x1="110" y1="324.9" x2="1140" y2="324.9" stroke="#1E1E1E" stroke-width="1"/>
<line x1="110" y1="266.1" x2="1140" y2="266.1" stroke="#1E1E1E" stroke-width="1"/>
<line x1="110" y1="221.6" x2="1140" y2="221.6" stroke="#2b2b2b" stroke-width="1"/>
<text x="98" y="225.6" fill="#F2EFE9" font-family="JetBrains Mono, monospace" font-size="12" text-anchor="end">10,000</text>
<line x1="110" y1="550.0" x2="118" y2="550.0" stroke="#2b2b2b" stroke-width="1"/>
<line x1="110" y1="531.5" x2="118" y2="531.5" stroke="#2b2b2b" stroke-width="1"/>
<line x1="110" y1="491.2" x2="118" y2="491.2" stroke="#2b2b2b" stroke-width="1"/>
<line x1="110" y1="446.7" x2="118" y2="446.7" stroke="#2b2b2b" stroke-width="1"/>
<line x1="110" y1="392.3" x2="118" y2="392.3" stroke="#2b2b2b" stroke-width="1"/>
<line x1="110" y1="343.4" x2="118" y2="343.4" stroke="#2b2b2b" stroke-width="1"/>
<line x1="110" y1="298.9" x2="118" y2="298.9" stroke="#2b2b2b" stroke-width="1"/>
<line x1="110" y1="244.5" x2="118" y2="244.5" stroke="#2b2b2b" stroke-width="1"/>
<line x1="110" y1="200.0" x2="118" y2="200.0" stroke="#2b2b2b" stroke-width="1"/>
<line x1="144.8" y1="200" x2="144.8" y2="550" stroke="#1E1E1E" stroke-width="1"/>
<text x="144.8" y="574" fill="#8A8781" font-family="JetBrains Mono, monospace" font-size="12" text-anchor="middle">150</text>
<line x1="219.5" y1="200" x2="219.5" y2="550" stroke="#1E1E1E" stroke-width="1"/>
<text x="219.5" y="574" fill="#8A8781" font-family="JetBrains Mono, monospace" font-size="12" text-anchor="middle">300</text>
<line x1="319.0" y1="200" x2="319.0" y2="550" stroke="#1E1E1E" stroke-width="1"/>
<text x="319.0" y="574" fill="#8A8781" font-family="JetBrains Mono, monospace" font-size="12" text-anchor="middle">500</text>
<line x1="567.8" y1="200" x2="567.8" y2="550" stroke="#1E1E1E" stroke-width="1"/>
<text x="567.8" y="574" fill="#8A8781" font-family="JetBrains Mono, monospace" font-size="12" text-anchor="middle">1,000</text>
<line x1="816.6" y1="200" x2="816.6" y2="550" stroke="#1E1E1E" stroke-width="1"/>
<text x="816.6" y="574" fill="#8A8781" font-family="JetBrains Mono, monospace" font-size="12" text-anchor="middle">1,500</text>
<line x1="1065.4" y1="200" x2="1065.4" y2="550" stroke="#1E1E1E" stroke-width="1"/>
<text x="1065.4" y="574" fill="#8A8781" font-family="JetBrains Mono, monospace" font-size="12" text-anchor="middle">2,000</text>
<text x="625.0" y="602" fill="#F2EFE9" font-family="Inter, sans-serif" font-size="14" text-anchor="middle">Range (km)</text>
<text x="30" y="375.0" fill="#8A8781" font-family="Inter, sans-serif" font-size="14" text-anchor="middle" transform="rotate(-90 30 375.0)">Cost per kg-km (INR)</text>
<line x1="58" y1="260" x2="58" y2="510" stroke="#5A5854" stroke-width="1"/>
<text x="64" y="490" fill="#5A5854" font-family="JetBrains Mono, monospace" font-size="10" transform="rotate(-90 64 490)" text-anchor="middle">lower is better ↓</text>
<polyline points="144.8,272.9 256.8,296.8 542.9,420.7 866.3,423.6" fill="none" stroke="#8f8f8f" stroke-width="2"/>
<circle cx="144.8" cy="272.9" r="6" fill="#060606" stroke="#8f8f8f" stroke-width="2"/>
<text x="144.8" y="254.9" fill="#8A8781" font-family="Inter, sans-serif" font-size="13" text-anchor="middle">Berkut-BM</text>
<circle cx="256.8" cy="296.8" r="6" fill="#060606" stroke="#8f8f8f" stroke-width="2"/>
<text x="256.8" y="278.8" fill="#8A8781" font-family="Inter, sans-serif" font-size="13" text-anchor="middle">Barracuda-250</text>
<circle cx="542.9" cy="420.7" r="6" fill="#060606" stroke="#8f8f8f" stroke-width="2"/>
<text x="542.9" y="402.7" fill="#8A8781" font-family="Inter, sans-serif" font-size="13" text-anchor="middle">Barracuda-500</text>
<circle cx="866.3" cy="423.6" r="6" fill="#060606" stroke="#8f8f8f" stroke-width="2"/>
<text x="866.3" y="405.6" fill="#8A8781" font-family="Inter, sans-serif" font-size="13" text-anchor="middle">Tomahawk</text>
<polyline points="219.5,305.6 319.0,343.4 567.8,442.5 816.6,590.4" fill="none" stroke="#D92323" stroke-width="2.5"/>
<circle cx="219.5" cy="305.6" r="6.5" fill="#D92323" stroke="#D92323" stroke-width="2"/>
<circle cx="319.0" cy="343.4" r="6.5" fill="#D92323" stroke="#D92323" stroke-width="2"/>
<circle cx="567.8" cy="442.5" r="6.5" fill="#D92323" stroke="#D92323" stroke-width="2"/>
<circle cx="816.6" cy="590.4" r="6.5" fill="#D92323" stroke="#D92323" stroke-width="2"/>
<text x="91.5" y="335.6" fill="#E83131" font-family="Inter, sans-serif" font-size="14" font-weight="700">Nightshade Mk II</text>
<text x="335.0" y="329.4" fill="#E83131" font-family="Inter, sans-serif" font-size="14" font-weight="700">Nightshade Mk III</text>
<text x="585.8" y="430.5" fill="#E83131" font-family="Inter, sans-serif" font-size="14" font-weight="700">Hemlock Mk I</text>
<text x="684.6" y="576.4" fill="#E83131" font-family="Inter, sans-serif" font-size="14" font-weight="700">Hemlock Mk II</text>
<line x1="810" y1="208" x2="838" y2="208" stroke="#8f8f8f" stroke-width="2"/>
<circle cx="824" cy="208" r="5" fill="#060606" stroke="#8f8f8f" stroke-width="2"/>
<text x="848" y="213" fill="#8A8781" font-family="Inter, sans-serif" font-size="13">Comparators in service</text>
<line x1="810" y1="232" x2="838" y2="232" stroke="#D92323" stroke-width="2.5"/>
<circle cx="824" cy="232" r="5.5" fill="#D92323"/>
<text x="848" y="237" fill="#E83131" font-family="Inter, sans-serif" font-size="13" font-weight="700">Apollyon long-range strike family</text>
<line x1="48" y1="606" x2="1152" y2="606" stroke="#1E1E1E" stroke-width="1"/>
<text x="48" y="628" fill="#5A5854" font-family="JetBrains Mono, monospace" font-size="10">APOLLYON DYNAMICS&#160;&#160;|&#160;&#160;USD 1 = INR 95&#160;&#160;|&#160;&#160;Berkut-BM unit cost estimated; no public figure</text>
<text x="1152" y="628" fill="#5A5854" font-family="JetBrains Mono, monospace" font-size="10" text-anchor="end">01</text>
</svg>